<svg class="svg-icon" style="width: 1em; height: 1em;vertical-align: middle;fill: currentColor;overflow: hidden;" viewBox="0 0 1024 1024" version="1.1" xmlns="http://www.w3.org/2000/svg"><path d="M852.9 147.8c4.9 0 9.1 4.2 9.1 9.1v167.8c0 4.9-4.2 9.1-9.1 9.1H171.1c-4.9 0-9.1-4.2-9.1-9.1V156.9c0-4.9 4.2-9.1 9.1-9.1h681.8m0-50H171.1c-32.5 0-59.1 26.6-59.1 59.1v167.8c0 32.5 26.6 59.1 59.1 59.1h681.8c32.5 0 59.1-26.6 59.1-59.1V156.9c0-32.5-26.6-59.1-59.1-59.1z"  /><path d="M290.5 214h-60v60h60v-60zM393.5 214h-60v60h60v-60zM806 214H591v60h215v-60zM852.9 417.8c4.9 0 9.1 4.2 9.1 9.1v167.8c0 4.9-4.2 9.1-9.1 9.1H171.1c-4.9 0-9.1-4.2-9.1-9.1V426.9c0-4.9 4.2-9.1 9.1-9.1h681.8m0-50H171.1c-32.5 0-59.1 26.6-59.1 59.1v167.8c0 32.5 26.6 59.1 59.1 59.1h681.8c32.5 0 59.1-26.6 59.1-59.1V426.9c0-32.5-26.6-59.1-59.1-59.1z"  /><path d="M290.5 484h-60v60h60v-60zM393.5 484h-60v60h60v-60zM806 484H591v60h215v-60zM852.9 687.8c4.9 0 9.1 4.2 9.1 9.1v167.8c0 4.9-4.2 9.1-9.1 9.1H171.1c-4.9 0-9.1-4.2-9.1-9.1V696.9c0-4.9 4.2-9.1 9.1-9.1h681.8m0-50H171.1c-32.5 0-59.1 26.6-59.1 59.1v167.8c0 32.5 26.6 59.1 59.1 59.1h681.8c32.5 0 59.1-26.6 59.1-59.1V696.9c0-32.5-26.6-59.1-59.1-59.1z"  /><path d="M290.5 754h-60v60h60v-60zM393.5 754h-60v60h60v-60zM806 754H591v60h215v-60z"  /></svg>