<svg xmlns="http://www.w3.org/2000/svg" shape-rendering="geometricPrecision" text-rendering="geometricPrecision" image-rendering="optimizeQuality" fill-rule="evenodd" clip-rule="evenodd" viewBox="0 0 512 488.282"><path fill="#000" fill-rule="nonzero" d="M268.313 8.2l65.464 153.293 166.054 14.902c7.332.632 12.754 7.085 12.118 14.412a13.262 13.262 0 01-4.495 8.87v.006L381.835 309.374l37.159 162.59c1.646 7.181-2.848 14.336-10.03 15.981a13.308 13.308 0 01-10.273-1.84l-142.686-85.309-143.144 85.579c-6.312 3.777-14.492 1.716-18.274-4.602a13.278 13.278 0 01-1.554-9.809l-.016-.006 37.164-162.589L4.551 199.683c-5.536-4.845-6.103-13.263-1.252-18.804a13.281 13.281 0 019.313-4.527l165.611-14.859L243.73 8.119c2.887-6.777 10.722-9.933 17.493-7.052a13.31 13.31 0 017.09 7.133z"/></svg>